<svg width="22" height="22" viewBox="0 0 22 22" fill="none" xmlns="http://www.w3.org/2000/svg">
<path d="M3.29993 13.7494V12.0994H4.94992V13.7494H3.29993Z" fill="#0C3537"/>
<path fill-rule="evenodd" clip-rule="evenodd" d="M15.3999 21.9997H2.19999C0.984967 21.9997 0 21.0148 0 19.7998V2.19986C0 0.984845 0.984967 -0.00012207 2.19999 -0.00012207H15.3999C16.6149 -0.00012207 17.5999 0.984845 17.5999 2.19986V19.7998C17.5999 21.0148 16.6149 21.9997 15.3999 21.9997ZM7.69996 4.94985C7.69996 4.64608 7.94619 4.39985 8.24995 4.39985H14.8499C15.1537 4.39985 15.3999 4.64608 15.3999 4.94985C15.3999 5.25361 15.1537 5.49984 14.8499 5.49984H8.24995C7.94619 5.49984 7.69996 5.25361 7.69996 4.94985ZM8.24995 6.59984C7.94619 6.59984 7.69996 6.84607 7.69996 7.14983C7.69996 7.4536 7.94619 7.69983 8.24995 7.69983H14.8499C15.1537 7.69983 15.3999 7.4536 15.3999 7.14983C15.3999 6.84607 15.1537 6.59984 14.8499 6.59984H8.24995ZM6.43887 4.56094C6.65364 4.77572 6.65364 5.12398 6.43887 5.33875L3.84998 7.92764L2.36108 6.43874C2.14629 6.22397 2.14629 5.87571 2.36108 5.66094C2.57587 5.44616 2.9241 5.44616 3.13889 5.66094L3.84998 6.37203L5.66106 4.56094C5.87584 4.34617 6.22409 4.34617 6.43887 4.56094ZM8.24995 10.9998C7.94619 10.9998 7.69996 11.246 7.69996 11.5498C7.69996 11.8536 7.94619 12.0998 8.24995 12.0998H14.8499C15.1537 12.0998 15.3999 11.8536 15.3999 11.5498C15.3999 11.246 15.1537 10.9998 14.8499 10.9998H8.24995ZM7.69996 13.7498C7.69996 13.446 7.94619 13.1998 8.24995 13.1998H14.8499C15.1537 13.1998 15.3999 13.446 15.3999 13.7498C15.3999 14.0536 15.1537 14.2998 14.8499 14.2998H8.24995C7.94619 14.2998 7.69996 14.0536 7.69996 13.7498ZM5.49997 10.9998H2.74998C2.44623 10.9998 2.19999 11.246 2.19999 11.5498V14.2998C2.19999 14.6036 2.44623 14.8498 2.74998 14.8498H5.49997C5.80373 14.8498 6.04996 14.6036 6.04996 14.2998V11.5498C6.04996 11.246 5.80373 10.9998 5.49997 10.9998Z" fill="#0C3537"/>
<path fill-rule="evenodd" clip-rule="evenodd" d="M22.0001 19.8L20.3501 21.9999L18.7001 19.8V9.90002H22.0001V19.8Z" fill="#0C3537"/>
<path fill-rule="evenodd" clip-rule="evenodd" d="M19.8001 6.05078H20.9001C21.5076 6.05078 22.0001 6.54325 22.0001 7.15077V9.35076H18.7001V7.15077C18.7001 6.54325 19.1925 6.05078 19.8001 6.05078Z" fill="#0C3537"/>
</svg>
