<svg width="20" height="16" viewBox="0 0 20 16" fill="none" xmlns="http://www.w3.org/2000/svg">
<path d="M4.28598 0.283473C4.47374 0.0957713 4.72836 -0.00967381 4.99385 -0.00967381C5.25934 -0.00967381 5.51396 0.0957713 5.70172 0.283473L9.70664 4.28839C9.88902 4.47723 9.98994 4.73014 9.98766 4.99266C9.98538 5.25518 9.88008 5.5063 9.69444 5.69194C9.50881 5.87757 9.25769 5.98287 8.99517 5.98515C8.73265 5.98743 8.47973 5.88652 8.2909 5.70413L5.99508 3.40831V15.0086C5.99508 15.2741 5.88959 15.5288 5.70183 15.7165C5.51406 15.9043 5.25939 16.0098 4.99385 16.0098C4.72831 16.0098 4.47364 15.9043 4.28587 15.7165C4.0981 15.5288 3.99262 15.2741 3.99262 15.0086V3.40831L1.6968 5.70413C1.50796 5.88652 1.25505 5.98743 0.99253 5.98515C0.730011 5.98287 0.47889 5.87757 0.293254 5.69194C0.107617 5.5063 0.00231907 5.25518 3.78492e-05 4.99266C-0.00224337 4.73014 0.098675 4.47723 0.281057 4.28839L4.28598 0.283473ZM14.0049 12.5916V0.991343C14.0049 0.7258 14.1104 0.471133 14.2982 0.283366C14.4859 0.095599 14.7406 -0.0098877 15.0062 -0.0098877C15.2717 -0.0098877 15.5264 0.095599 15.7141 0.283366C15.9019 0.471133 16.0074 0.7258 16.0074 0.991343V12.5916L18.3032 10.2958C18.492 10.1134 18.7449 10.0125 19.0075 10.0148C19.27 10.017 19.5211 10.1223 19.7067 10.308C19.8924 10.4936 19.9977 10.7447 20 11.0072C20.0022 11.2698 19.9013 11.5227 19.7189 11.7115L15.714 15.7164C15.5263 15.9041 15.2716 16.0096 15.0062 16.0096C14.7407 16.0096 14.486 15.9041 14.2983 15.7164L10.2934 11.7115C10.111 11.5227 10.0101 11.2698 10.0123 11.0072C10.0146 10.7447 10.1199 10.4936 10.3056 10.308C10.4912 10.1223 10.7423 10.017 11.0048 10.0148C11.2674 10.0125 11.5203 10.1134 11.7091 10.2958L14.0049 12.5916Z" fill="#888888"/>
</svg>
